<svg width="221" height="350" viewBox="0 0 221 350" fill="none" xmlns="http://www.w3.org/2000/svg">
<path d="M191.068 327.773C187.955 327.75 184.886 327.182 181.864 326.068C178.841 324.955 176.114 323.136 173.682 320.614C171.227 318.091 169.273 314.682 167.818 310.386C166.341 306.114 165.591 300.795 165.568 294.432C165.568 288.318 166.182 282.875 167.409 278.102C168.636 273.352 170.398 269.341 172.693 266.068C174.966 262.795 177.727 260.307 180.977 258.602C184.227 256.898 187.886 256.045 191.955 256.045C196.114 256.045 199.807 256.864 203.034 258.5C206.261 260.136 208.886 262.398 210.909 265.284C212.932 268.193 214.193 271.534 214.693 275.307L204.295 275.307C203.614 272.307 202.227 269.875 200.136 268.011C198.023 266.17 195.295 265.25 191.955 265.25C186.841 265.25 182.852 267.477 179.989 271.932C177.125 276.409 175.682 282.659 175.659 290.682L176.205 290.682C177.386 288.727 178.864 287.045 180.636 285.636C182.386 284.227 184.352 283.136 186.534 282.364C188.716 281.591 191.045 281.205 193.523 281.205C197.545 281.205 201.205 282.193 204.5 284.17C207.795 286.148 210.42 288.864 212.375 292.318C214.33 295.773 215.307 299.716 215.307 304.148C215.307 308.557 214.307 312.557 212.307 316.148C210.284 319.739 207.466 322.58 203.852 324.67C200.216 326.784 195.955 327.818 191.068 327.773ZM191.034 318.909C193.693 318.909 196.091 318.25 198.227 316.932C200.341 315.636 202.011 313.875 203.239 311.648C204.466 309.443 205.08 306.989 205.08 304.284C205.08 301.58 204.489 299.125 203.307 296.92C202.102 294.739 200.466 293 198.398 291.705C196.307 290.432 193.92 289.795 191.239 289.795C189.239 289.795 187.375 290.182 185.648 290.955C183.92 291.727 182.409 292.795 181.114 294.159C179.818 295.545 178.807 297.114 178.08 298.864C177.352 300.614 176.989 302.455 176.989 304.386C176.989 306.955 177.602 309.341 178.83 311.545C180.034 313.75 181.693 315.523 183.807 316.864C185.92 318.227 188.33 318.909 191.034 318.909Z" fill="black"/>
<path d="M29.4545 22.2273C32.3182 22.25 35.1818 22.7955 38.0455 23.8636C40.9091 24.9318 43.5227 26.7045 45.8864 29.1818C48.25 31.6364 50.1477 34.9886 51.5795 39.2386C53.0114 43.4886 53.7273 48.8182 53.7273 55.2273C53.7273 61.4318 53.1364 66.9432 51.9545 71.7614C50.7955 76.5568 49.1136 80.6023 46.9091 83.8977C44.7273 87.1932 42.0682 89.6932 38.9318 91.3977C35.8182 93.1023 32.2955 93.9545 28.3636 93.9545C24.4545 93.9545 20.9659 93.1818 17.8977 91.6364C14.8523 90.0682 12.3523 87.8977 10.3977 85.125C8.46591 82.3295 7.22727 79.0909 6.68182 75.4091H15C15.75 78.6136 17.2386 81.2614 19.4659 83.3523C21.7159 85.4205 24.6818 86.4545 28.3636 86.4545C33.75 86.4545 38 84.1023 41.1136 79.3977C44.25 74.6932 45.8182 68.0455 45.8182 59.4545H45.2727C44 61.3636 42.4886 63.0114 40.7386 64.3977C38.9886 65.7841 37.0455 66.8523 34.9091 67.6023C32.7727 68.3523 30.5 68.7273 28.0909 68.7273C24.0909 68.7273 20.4205 67.7386 17.0795 65.7614C13.7614 63.7614 11.1023 61.0227 9.10227 57.5455C7.125 54.0455 6.13636 50.0455 6.13636 45.5455C6.13636 41.2727 7.09091 37.3636 9 33.8182C10.9318 30.25 13.6364 27.4091 17.1136 25.2955C20.6136 23.1818 24.7273 22.1591 29.4545 22.2273ZM29.4545 29.7273C26.5909 29.7273 24.0114 30.4432 21.7159 31.875C19.4432 33.2841 17.6364 35.1932 16.2955 37.6023C14.9773 39.9886 14.3182 42.6364 14.3182 45.5455C14.3182 48.4545 14.9545 51.1023 16.2273 53.4886C17.5227 55.8523 19.2841 57.7386 21.5114 59.1477C23.7614 60.5341 26.3182 61.2273 29.1818 61.2273C31.3409 61.2273 33.3523 60.8068 35.2159 59.9659C37.0795 59.1023 38.7045 57.9318 40.0909 56.4545C41.5 54.9545 42.6023 53.2614 43.3977 51.375C44.1932 49.4659 44.5909 47.4773 44.5909 45.4091C44.5909 42.6818 43.9318 40.125 42.6136 37.7386C41.3182 35.3523 39.5227 33.4205 37.2273 31.9432C34.9545 30.4659 32.3636 29.7273 29.4545 29.7273Z" fill="black"/>
</svg>
