<svg width="221" height="350" viewBox="0 0 221 350" fill="none" xmlns="http://www.w3.org/2000/svg">
<path d="M187.659 279.636L177.295 279.636L170 270.125L166.557 265.898L154.932 250.727L165.705 250.727L173.477 260.852L176.136 264.534L187.659 279.636ZM152.682 291.909C152.682 284.455 154.045 278.045 156.773 272.682C159.5 267.341 163.239 263.227 167.989 260.341C172.716 257.477 178.091 256.045 184.114 256.045C190.159 256.045 195.557 257.477 200.307 260.341C205.034 263.227 208.761 267.352 211.489 272.716C214.216 278.08 215.58 284.477 215.58 291.909C215.58 299.364 214.216 305.761 211.489 311.102C208.761 316.466 205.034 320.58 200.307 323.443C195.557 326.33 190.159 327.773 184.114 327.773C178.091 327.773 172.716 326.33 167.989 323.443C163.239 320.58 159.5 316.466 156.773 311.102C154.045 305.761 152.682 299.364 152.682 291.909ZM163.114 291.909C163.114 297.591 164.034 302.375 165.875 306.261C167.693 310.17 170.193 313.125 173.375 315.125C176.534 317.148 180.114 318.159 184.114 318.159C188.136 318.159 191.727 317.148 194.886 315.125C198.045 313.125 200.545 310.17 202.386 306.261C204.205 302.375 205.114 297.591 205.114 291.909C205.114 286.227 204.205 281.432 202.386 277.523C200.545 273.636 198.045 270.682 194.886 268.659C191.727 266.659 188.136 265.659 184.114 265.659C180.114 265.659 176.534 266.659 173.375 268.659C170.193 270.682 167.693 273.636 165.875 277.523C164.034 281.432 163.114 286.227 163.114 291.909Z" fill="black"/>
<path d="M33.8182 71.1818H43.0909L50.8636 81.4091L52.9091 84.1364L64.5 99.5455H55.2273L47.5909 89.3182L45.6818 86.7273L33.8182 71.1818ZM67.3636 58.0909C67.3636 65.4545 66.0341 71.8182 63.375 77.1818C60.7159 82.5455 57.0682 86.6818 52.4318 89.5909C47.7955 92.5 42.5 93.9545 36.5455 93.9545C30.5909 93.9545 25.2955 92.5 20.6591 89.5909C16.0227 86.6818 12.375 82.5455 9.71591 77.1818C7.05682 71.8182 5.72727 65.4545 5.72727 58.0909C5.72727 50.7273 7.05682 44.3636 9.71591 39C12.375 33.6364 16.0227 29.5 20.6591 26.5909C25.2955 23.6818 30.5909 22.2273 36.5455 22.2273C42.5 22.2273 47.7955 23.6818 52.4318 26.5909C57.0682 29.5 60.7159 33.6364 63.375 39C66.0341 44.3636 67.3636 50.7273 67.3636 58.0909ZM59.1818 58.0909C59.1818 52.0455 58.1705 46.9432 56.1477 42.7841C54.1477 38.625 51.4318 35.4773 48 33.3409C44.5909 31.2045 40.7727 30.1364 36.5455 30.1364C32.3182 30.1364 28.4886 31.2045 25.0568 33.3409C21.6477 35.4773 18.9318 38.625 16.9091 42.7841C14.9091 46.9432 13.9091 52.0455 13.9091 58.0909C13.9091 64.1364 14.9091 69.2386 16.9091 73.3977C18.9318 77.5568 21.6477 80.7045 25.0568 82.8409C28.4886 84.9773 32.3182 86.0455 36.5455 86.0455C40.7727 86.0455 44.5909 84.9773 48 82.8409C51.4318 80.7045 54.1477 77.5568 56.1477 73.3977C58.1705 69.2386 59.1818 64.1364 59.1818 58.0909Z" fill="black"/>
</svg>
