<svg width="241" height="350" viewBox="0 0 241 350" fill="none" xmlns="http://www.w3.org/2000/svg">
<path d="M207.795 326.818L207.795 257L218.364 257L218.364 316.25L218.773 316.25L235.477 305.341L235.477 315.432L218.057 326.818L207.795 326.818ZM164.602 255.841C169.989 255.864 174.591 257.284 178.409 260.102C182.227 262.92 185.148 267.023 187.17 272.409C189.193 277.795 190.205 284.284 190.205 291.875C190.205 299.443 189.193 305.909 187.17 311.273C185.125 316.636 182.193 320.727 178.375 323.545C174.534 326.364 169.943 327.773 164.602 327.773C159.261 327.773 154.682 326.352 150.864 323.511C147.045 320.693 144.125 316.602 142.102 311.239C140.057 305.898 139.034 299.443 139.034 291.875C139.034 284.261 140.045 277.761 142.068 272.375C144.091 267.011 147.011 262.909 150.83 260.068C154.648 257.25 159.239 255.841 164.602 255.841ZM164.602 264.943C159.875 264.943 156.182 267.25 153.523 271.864C150.841 276.477 149.5 283.148 149.5 291.875C149.5 297.67 150.114 302.568 151.341 306.568C152.545 310.591 154.284 313.636 156.557 315.705C158.807 317.795 161.489 318.841 164.602 318.841C169.307 318.841 173 316.523 175.682 311.886C178.364 307.25 179.716 300.58 179.739 291.875C179.739 286.057 179.136 281.136 177.932 277.114C176.705 273.114 174.966 270.08 172.716 268.011C170.466 265.966 167.761 264.943 164.602 264.943Z" fill="black"/>
<path d="M31.7727 23.1818V93H23.3182V32.0455H22.9091L5.86364 43.3636V34.7727L23.3182 23.1818H31.7727ZM74.625 93.9545C69.4886 93.9545 65.1136 92.5568 61.5 89.7614C57.8864 86.9432 55.125 82.8636 53.2159 77.5227C51.3068 72.1591 50.3523 65.6818 50.3523 58.0909C50.3523 50.5455 51.3068 44.1023 53.2159 38.7614C55.1477 33.3977 57.9205 29.3068 61.5341 26.4886C65.1705 23.6477 69.5341 22.2273 74.625 22.2273C79.7159 22.2273 84.0682 23.6477 87.6818 26.4886C91.3182 29.3068 94.0909 33.3977 96 38.7614C97.9318 44.1023 98.8977 50.5455 98.8977 58.0909C98.8977 65.6818 97.9432 72.1591 96.0341 77.5227C94.125 82.8636 91.3636 86.9432 87.75 89.7614C84.1364 92.5568 79.7614 93.9545 74.625 93.9545ZM74.625 86.4545C79.7159 86.4545 83.6705 84 86.4886 79.0909C89.3068 74.1818 90.7159 67.1818 90.7159 58.0909C90.7159 52.0455 90.0682 46.8977 88.7727 42.6477C87.5 38.3977 85.6591 35.1591 83.25 32.9318C80.8636 30.7045 77.9886 29.5909 74.625 29.5909C69.5795 29.5909 65.6364 32.0795 62.7955 37.0568C59.9545 42.0114 58.5341 49.0227 58.5341 58.0909C58.5341 64.1364 59.1705 69.2727 60.4432 73.5C61.7159 77.7273 63.5455 80.9432 65.9318 83.1477C68.3409 85.3523 71.2386 86.4545 74.625 86.4545Z" fill="black"/>
</svg>
