<svg width="221" height="350" viewBox="0 0 221 350" fill="none" xmlns="http://www.w3.org/2000/svg">
<path d="M214.284 257L214.284 264.636L190.659 289.114C188.136 291.773 186.057 294.102 184.42 296.102C182.761 298.125 181.523 300.045 180.705 301.864C179.886 303.682 179.477 305.614 179.477 307.659C179.477 309.977 180.023 311.977 181.114 313.659C182.205 315.364 183.693 316.67 185.58 317.58C187.466 318.511 189.591 318.977 191.955 318.977C194.455 318.977 196.636 318.466 198.5 317.443C200.364 316.42 201.795 314.977 202.795 313.114C203.795 311.25 204.295 309.068 204.295 306.568L214.352 306.568C214.352 310.818 213.375 314.534 211.42 317.716C209.466 320.898 206.784 323.364 203.375 325.114C199.966 326.886 196.091 327.773 191.75 327.773C187.364 327.773 183.5 326.898 180.159 325.148C176.795 323.42 174.17 321.057 172.284 318.057C170.398 315.08 169.455 311.716 169.455 307.966C169.455 305.375 169.943 302.841 170.92 300.364C171.875 297.886 173.545 295.125 175.932 292.08C178.318 289.057 181.636 285.386 185.886 281.068L199.761 266.545L199.761 266.034L168.33 266.034L168.33 257L214.284 257Z" fill="#FF0000"/>
<path d="M7.22727 93V86.8636L30.2727 61.6364C32.9773 58.6818 35.2045 56.1136 36.9545 53.9318C38.7045 51.7273 40 49.6591 40.8409 47.7273C41.7045 45.7727 42.1364 43.7273 42.1364 41.5909C42.1364 39.1364 41.5455 37.0114 40.3636 35.2159C39.2045 33.4205 37.6136 32.0341 35.5909 31.0568C33.5682 30.0795 31.2955 29.5909 28.7727 29.5909C26.0909 29.5909 23.75 30.1477 21.75 31.2614C19.7727 32.3523 18.2386 33.8864 17.1477 35.8636C16.0795 37.8409 15.5455 40.1591 15.5455 42.8182H7.5C7.5 38.7273 8.44318 35.1364 10.3295 32.0455C12.2159 28.9545 14.7841 26.5455 18.0341 24.8182C21.3068 23.0909 24.9773 22.2273 29.0455 22.2273C33.1364 22.2273 36.7614 23.0909 39.9205 24.8182C43.0795 26.5455 45.5568 28.875 47.3523 31.8068C49.1477 34.7386 50.0455 38 50.0455 41.5909C50.0455 44.1591 49.5795 46.6705 48.6477 49.125C47.7386 51.5568 46.1477 54.2727 43.875 57.2727C41.625 60.25 38.5 63.8864 34.5 68.1818L18.8182 84.9545V85.5H51.2727V93H7.22727Z" fill="#FF0000"/>
</svg>
