<svg width="221" height="350" viewBox="0 0 221 350" fill="none" xmlns="http://www.w3.org/2000/svg">
<path d="M189.977 256.045C194.659 256.045 198.841 256.852 202.523 258.466C206.182 260.08 209.08 262.318 211.216 265.182C213.33 268.068 214.466 271.409 214.625 275.205L203.92 275.205C203.784 273.136 203.091 271.341 201.841 269.818C200.568 268.318 198.909 267.159 196.864 266.341C194.818 265.523 192.545 265.114 190.045 265.114C187.295 265.114 184.864 265.591 182.75 266.545C180.614 267.5 178.943 268.83 177.739 270.534C176.534 272.261 175.932 274.25 175.932 276.5C175.932 278.841 176.534 280.898 177.739 282.67C178.92 284.466 180.659 285.875 182.955 286.898C185.227 287.92 187.977 288.432 191.205 288.432L197.102 288.432L197.102 297.023L191.205 297.023C188.614 297.023 186.341 297.489 184.386 298.42C182.409 299.352 180.864 300.648 179.75 302.307C178.636 303.989 178.08 305.955 178.08 308.205C178.08 310.364 178.568 312.239 179.545 313.83C180.5 315.443 181.864 316.705 183.636 317.614C185.386 318.523 187.455 318.977 189.841 318.977C192.114 318.977 194.239 318.557 196.216 317.716C198.17 316.898 199.761 315.716 200.989 314.17C202.216 312.648 202.875 310.818 202.966 308.682L213.159 308.682C213.045 312.455 211.932 315.773 209.818 318.636C207.682 321.5 204.864 323.739 201.364 325.352C197.864 326.966 193.977 327.773 189.705 327.773C185.227 327.773 181.364 326.898 178.114 325.148C174.841 323.42 172.318 321.114 170.545 318.227C168.75 315.341 167.864 312.182 167.886 308.75C167.864 304.841 168.955 301.523 171.159 298.795C173.341 296.068 176.25 294.239 179.886 293.307L179.886 292.761C175.25 292.057 171.659 290.216 169.114 287.239C166.545 284.261 165.273 280.568 165.295 276.159C165.273 272.318 166.341 268.875 168.5 265.83C170.636 262.784 173.557 260.386 177.261 258.636C180.966 256.909 185.205 256.045 189.977 256.045Z" fill="#FF0000"/>
<path d="M30.8182 93.9545C26.3182 93.9545 22.3068 93.1818 18.7841 91.6364C15.2841 90.0909 12.5 87.9432 10.4318 85.1932C8.38636 82.4205 7.27273 79.2045 7.09091 75.5455H15.6818C15.8636 77.7955 16.6364 79.7386 18 81.375C19.3636 82.9886 21.1477 84.2386 23.3523 85.125C25.5568 86.0114 28 86.4545 30.6818 86.4545C33.6818 86.4545 36.3409 85.9318 38.6591 84.8864C40.9773 83.8409 42.7955 82.3864 44.1136 80.5227C45.4318 78.6591 46.0909 76.5 46.0909 74.0455C46.0909 71.4773 45.4545 69.2159 44.1818 67.2614C42.9091 65.2841 41.0455 63.7386 38.5909 62.625C36.1364 61.5114 33.1364 60.9545 29.5909 60.9545H24V53.4545H29.5909C32.3636 53.4545 34.7955 52.9545 36.8864 51.9545C39 50.9545 40.6477 49.5455 41.8295 47.7273C43.0341 45.9091 43.6364 43.7727 43.6364 41.3182C43.6364 38.9545 43.1136 36.8977 42.0682 35.1477C41.0227 33.3977 39.5455 32.0341 37.6364 31.0568C35.75 30.0795 33.5227 29.5909 30.9545 29.5909C28.5455 29.5909 26.2727 30.0341 24.1364 30.9205C22.0227 31.7841 20.2955 33.0455 18.9545 34.7045C17.6136 36.3409 16.8864 38.3182 16.7727 40.6364H8.59091C8.72727 36.9773 9.82955 33.7727 11.8977 31.0227C13.9659 28.25 16.6705 26.0909 20.0114 24.5455C23.375 23 27.0682 22.2273 31.0909 22.2273C35.4091 22.2273 39.1136 23.1023 42.2045 24.8523C45.2955 26.5795 47.6705 28.8636 49.3295 31.7045C50.9886 34.5455 51.8182 37.6136 51.8182 40.9091C51.8182 44.8409 50.7841 48.1932 48.7159 50.9659C46.6705 53.7386 43.8864 55.6591 40.3636 56.7273V57.2727C44.7727 58 48.2159 59.875 50.6932 62.8977C53.1705 65.8977 54.4091 69.6136 54.4091 74.0455C54.4091 77.8409 53.375 81.25 51.3068 84.2727C49.2614 87.2727 46.4659 89.6364 42.9205 91.3636C39.375 93.0909 35.3409 93.9545 30.8182 93.9545Z" fill="#FF0000"/>
</svg>
