<svg width="221" height="350" viewBox="0 0 221 350" fill="none" xmlns="http://www.w3.org/2000/svg">
<path d="M215.75 270.636L215.75 279.159L185.58 326.818L178.864 326.818L178.864 314.273L183.125 314.273L204.705 280.114L204.705 279.568L163.352 279.568L163.352 270.636L215.75 270.636ZM182.648 257L182.648 273.227L182.58 277.114L182.58 326.818L172.591 326.818L172.591 257L182.648 257Z" fill="#FF0000"/>
<path d="M5.59091 78.6818V71.7273L36.2727 23.1818H41.3182V33.9545H37.9091L14.7273 70.6364V71.1818H56.0455V78.6818H5.59091ZM38.4545 93V76.5682V73.3295V23.1818H46.5V93H38.4545Z" fill="#FF0000"/>
</svg>
