<svg width="221" height="350" viewBox="0 0 221 350" fill="none" xmlns="http://www.w3.org/2000/svg">
<path d="M191.239 256.045C195.511 256.045 199.352 256.864 202.761 258.5C206.148 260.159 208.852 262.432 210.875 265.318C212.898 268.205 213.977 271.5 214.114 275.205L203.886 275.205C203.636 272.205 202.307 269.739 199.898 267.807C197.489 265.875 194.602 264.909 191.239 264.909C188.557 264.909 186.182 265.523 184.114 266.75C182.023 268 180.386 269.716 179.205 271.898C178 274.08 177.398 276.568 177.398 279.364C177.398 282.205 178.011 284.739 179.239 286.966C180.466 289.193 182.159 290.943 184.318 292.216C186.455 293.489 188.909 294.136 191.682 294.159C193.795 294.159 195.92 293.795 198.057 293.068C200.193 292.341 201.92 291.386 203.239 290.205L212.886 291.636L208.966 326.818L170.58 326.818L170.58 317.784L200.205 317.784L202.42 298.25L202.011 298.25C200.648 299.568 198.841 300.67 196.591 301.557C194.318 302.443 191.886 302.886 189.295 302.886C185.045 302.886 181.261 301.875 177.943 299.852C174.602 297.83 171.977 295.068 170.068 291.568C168.136 288.091 167.182 284.091 167.205 279.568C167.182 275.045 168.205 271.011 170.273 267.466C172.318 263.92 175.159 261.125 178.795 259.08C182.409 257.057 186.557 256.045 191.239 256.045Z" fill="#FF0000"/>
<path d="M29.0455 93.9545C25.0455 93.9545 21.4432 93.1591 18.2386 91.5682C15.0341 89.9773 12.4659 87.7955 10.5341 85.0227C8.60227 82.25 7.54545 79.0909 7.36364 75.5455H15.5455C15.8636 78.7045 17.2955 81.3182 19.8409 83.3864C22.4091 85.4318 25.4773 86.4545 29.0455 86.4545C31.9091 86.4545 34.4545 85.7841 36.6818 84.4432C38.9318 83.1023 40.6932 81.2614 41.9659 78.9205C43.2614 76.5568 43.9091 73.8864 43.9091 70.9091C43.9091 67.8636 43.2386 65.1477 41.8977 62.7614C40.5795 60.3523 38.7614 58.4545 36.4432 57.0682C34.125 55.6818 31.4773 54.9773 28.5 54.9545C26.3636 54.9318 24.1705 55.2614 21.9205 55.9432C19.6705 56.6023 17.8182 57.4545 16.3636 58.5L8.45455 57.5455L12.6818 23.1818H48.9545V30.6818H19.7727L17.3182 51.2727H17.7273C19.1591 50.1364 20.9545 49.1932 23.1136 48.4432C25.2727 47.6932 27.5227 47.3182 29.8636 47.3182C34.1364 47.3182 37.9432 48.3409 41.2841 50.3864C44.6477 52.4091 47.2841 55.1818 49.1932 58.7045C51.125 62.2273 52.0909 66.25 52.0909 70.7727C52.0909 75.2273 51.0909 79.2045 49.0909 82.7045C47.1136 86.1818 44.3864 88.9318 40.9091 90.9545C37.4318 92.9545 33.4773 93.9545 29.0455 93.9545Z" fill="#FF0000"/>
</svg>
