<svg width="221" height="350" viewBox="0 0 221 350" fill="none" xmlns="http://www.w3.org/2000/svg">
<path d="M189.909 256.045C193.023 256.091 196.091 256.659 199.114 257.75C202.114 258.841 204.841 260.659 207.295 263.205C209.75 265.75 211.716 269.17 213.193 273.466C214.648 277.761 215.375 283.125 215.375 289.557C215.375 295.648 214.773 301.057 213.568 305.784C212.341 310.511 210.58 314.5 208.284 317.75C205.989 321.023 203.216 323.511 199.966 325.216C196.716 326.92 193.068 327.773 189.023 327.773C184.864 327.773 181.17 326.955 177.943 325.318C174.716 323.682 172.102 321.42 170.102 318.534C168.08 315.648 166.795 312.364 166.25 308.682L176.648 308.682C177.352 311.591 178.75 313.966 180.841 315.807C182.932 317.648 185.659 318.568 189.023 318.568C194.136 318.568 198.125 316.341 200.989 311.886C203.83 307.432 205.261 301.239 205.284 293.307L204.773 293.307C203.568 295.284 202.091 296.966 200.341 298.352C198.568 299.761 196.591 300.841 194.409 301.591C192.205 302.364 189.886 302.75 187.455 302.75C183.409 302.75 179.75 301.761 176.477 299.784C173.182 297.83 170.557 295.125 168.602 291.67C166.648 288.216 165.67 284.261 165.67 279.807C165.67 275.352 166.682 271.318 168.705 267.705C170.705 264.091 173.523 261.227 177.159 259.114C180.795 257.023 185.045 256 189.909 256.045ZM189.943 264.909C187.261 264.909 184.864 265.568 182.75 266.886C180.636 268.205 178.966 269.977 177.739 272.205C176.511 274.432 175.898 276.92 175.898 279.67C175.898 282.352 176.5 284.795 177.705 287C178.886 289.205 180.523 290.955 182.614 292.25C184.682 293.545 187.045 294.193 189.705 294.193C191.727 294.193 193.602 293.807 195.33 293.034C197.034 292.261 198.534 291.193 199.83 289.83C201.125 288.466 202.148 286.898 202.898 285.125C203.625 283.375 203.989 281.523 203.989 279.568C203.989 276.955 203.386 274.534 202.182 272.307C200.955 270.08 199.284 268.284 197.17 266.92C195.034 265.58 192.625 264.909 189.943 264.909Z" fill="#FF0000"/>
<path d="M30.4091 93.9545C27.5455 93.9091 24.6818 93.3636 21.8182 92.3182C18.9545 91.2727 16.3409 89.5114 13.9773 87.0341C11.6136 84.5341 9.71591 81.1591 8.28409 76.9091C6.85227 72.6364 6.13636 67.2727 6.13636 60.8182C6.13636 54.6364 6.71591 49.1591 7.875 44.3864C9.03409 39.5909 10.7159 35.5568 12.9205 32.2841C15.125 28.9886 17.7841 26.4886 20.8977 24.7841C24.0341 23.0795 27.5682 22.2273 31.5 22.2273C35.4091 22.2273 38.8864 23.0114 41.9318 24.5795C45 26.125 47.5 28.2841 49.4318 31.0568C51.3636 33.8295 52.6136 37.0227 53.1818 40.6364H44.8636C44.0909 37.5 42.5909 34.8977 40.3636 32.8295C38.1364 30.7614 35.1818 29.7273 31.5 29.7273C26.0909 29.7273 21.8295 32.0795 18.7159 36.7841C15.625 41.4886 14.0682 48.0909 14.0455 56.5909H14.5909C15.8636 54.6591 17.375 53.0114 19.125 51.6477C20.8977 50.2614 22.8523 49.1932 24.9886 48.4432C27.125 47.6932 29.3864 47.3182 31.7727 47.3182C35.7727 47.3182 39.4318 48.3182 42.75 50.3182C46.0682 52.2955 48.7273 55.0341 50.7273 58.5341C52.7273 62.0114 53.7273 66 53.7273 70.5C53.7273 74.8182 52.7614 78.7727 50.8295 82.3636C48.8977 85.9318 46.1818 88.7727 42.6818 90.8864C39.2045 92.9773 35.1136 94 30.4091 93.9545ZM30.4091 86.4545C33.2727 86.4545 35.8409 85.7386 38.1136 84.3068C40.4091 82.875 42.2159 80.9545 43.5341 78.5455C44.875 76.1364 45.5455 73.4545 45.5455 70.5C45.5455 67.6136 44.8977 64.9886 43.6023 62.625C42.3295 60.2386 40.5682 58.3409 38.3182 56.9318C36.0909 55.5227 33.5455 54.8182 30.6818 54.8182C28.5227 54.8182 26.5114 55.25 24.6477 56.1136C22.7841 56.9545 21.1477 58.1136 19.7386 59.5909C18.3523 61.0682 17.2614 62.7614 16.4659 64.6705C15.6705 66.5568 15.2727 68.5455 15.2727 70.6364C15.2727 73.4091 15.9205 76 17.2159 78.4091C18.5341 80.8182 20.3295 82.7614 22.6023 84.2386C24.8977 85.7159 27.5 86.4545 30.4091 86.4545Z" fill="#FF0000"/>
</svg>
