<svg width="221" height="350" viewBox="0 0 221 350" fill="none" xmlns="http://www.w3.org/2000/svg">
<path d="M190.693 256.045C195.58 256.045 199.898 256.886 203.648 258.568C207.375 260.25 210.295 262.568 212.409 265.523C214.523 268.477 215.568 271.841 215.545 275.614C215.568 278.568 214.966 281.284 213.739 283.761C212.489 286.261 210.795 288.341 208.659 290C206.523 291.682 204.136 292.75 201.5 293.205L201.5 293.614C204.977 294.455 207.761 296.318 209.852 299.205C211.943 302.091 212.977 305.409 212.955 309.159C212.977 312.727 212.034 315.909 210.125 318.705C208.193 321.523 205.545 323.739 202.182 325.352C198.818 326.966 194.989 327.773 190.693 327.773C186.443 327.773 182.648 326.955 179.307 325.318C175.943 323.705 173.295 321.489 171.364 318.67C169.432 315.875 168.455 312.705 168.432 309.159C168.455 305.409 169.523 302.091 171.636 299.205C173.75 296.318 176.5 294.455 179.886 293.614L179.886 293.205C177.273 292.75 174.92 291.682 172.83 290C170.716 288.341 169.034 286.261 167.784 283.761C166.511 281.284 165.864 278.568 165.841 275.614C165.864 271.841 166.932 268.477 169.045 265.523C171.159 262.568 174.091 260.25 177.841 258.568C181.568 256.886 185.852 256.045 190.693 256.045ZM190.693 264.67C187.807 264.67 185.307 265.148 183.193 266.102C181.08 267.08 179.443 268.432 178.284 270.159C177.125 271.909 176.534 273.955 176.511 276.295C176.534 278.727 177.17 280.875 178.42 282.739C179.648 284.602 181.318 286.068 183.432 287.136C185.545 288.205 187.966 288.739 190.693 288.739C193.443 288.739 195.886 288.205 198.023 287.136C200.159 286.068 201.841 284.602 203.068 282.739C204.295 280.875 204.898 278.727 204.875 276.295C204.898 273.955 204.341 271.909 203.205 270.159C202.045 268.432 200.398 267.08 198.261 266.102C196.125 265.148 193.602 264.67 190.693 264.67ZM190.693 297.159C188.375 297.159 186.318 297.625 184.523 298.557C182.727 299.489 181.318 300.784 180.295 302.443C179.25 304.102 178.716 306.045 178.693 308.273C178.716 310.455 179.239 312.364 180.261 314C181.261 315.636 182.659 316.898 184.455 317.784C186.25 318.693 188.33 319.148 190.693 319.148C193.102 319.148 195.216 318.693 197.034 317.784C198.83 316.898 200.227 315.636 201.227 314C202.227 312.364 202.716 310.455 202.693 308.273C202.716 306.045 202.216 304.102 201.193 302.443C200.17 300.784 198.761 299.489 196.966 298.557C195.148 297.625 193.057 297.159 190.693 297.159Z" fill="#FF0000"/>
<path d="M29.5909 93.9545C24.9091 93.9545 20.7727 93.125 17.1818 91.4659C13.6136 89.7841 10.8295 87.4773 8.82955 84.5455C6.82955 81.5909 5.84091 78.2273 5.86364 74.4545C5.84091 71.5 6.42045 68.7727 7.60227 66.2727C8.78409 63.75 10.3977 61.6477 12.4432 59.9659C14.5114 58.2614 16.8182 57.1818 19.3636 56.7273V56.3182C16.0227 55.4545 13.3636 53.5795 11.3864 50.6932C9.40909 47.7841 8.43182 44.4773 8.45455 40.7727C8.43182 37.2273 9.32955 34.0568 11.1477 31.2614C12.9659 28.4659 15.4659 26.2614 18.6477 24.6477C21.8523 23.0341 25.5 22.2273 29.5909 22.2273C33.6364 22.2273 37.25 23.0341 40.4318 24.6477C43.6136 26.2614 46.1136 28.4659 47.9318 31.2614C49.7727 34.0568 50.7045 37.2273 50.7273 40.7727C50.7045 44.4773 49.6932 47.7841 47.6932 50.6932C45.7159 53.5795 43.0909 55.4545 39.8182 56.3182V56.7273C42.3409 57.1818 44.6136 58.2614 46.6364 59.9659C48.6591 61.6477 50.2727 63.75 51.4773 66.2727C52.6818 68.7727 53.2955 71.5 53.3182 74.4545C53.2955 78.2273 52.2727 81.5909 50.25 84.5455C48.25 87.4773 45.4659 89.7841 41.8977 91.4659C38.3523 93.125 34.25 93.9545 29.5909 93.9545ZM29.5909 86.4545C32.75 86.4545 35.4773 85.9432 37.7727 84.9205C40.0682 83.8977 41.8409 82.4545 43.0909 80.5909C44.3409 78.7273 44.9773 76.5455 45 74.0455C44.9773 71.4091 44.2955 69.0795 42.9545 67.0568C41.6136 65.0341 39.7841 63.4432 37.4659 62.2841C35.1705 61.125 32.5455 60.5455 29.5909 60.5455C26.6136 60.5455 23.9545 61.125 21.6136 62.2841C19.2955 63.4432 17.4659 65.0341 16.125 67.0568C14.8068 69.0795 14.1591 71.4091 14.1818 74.0455C14.1591 76.5455 14.7614 78.7273 15.9886 80.5909C17.2386 82.4545 19.0227 83.8977 21.3409 84.9205C23.6591 85.9432 26.4091 86.4545 29.5909 86.4545ZM29.5909 53.3182C32.0909 53.3182 34.3068 52.8182 36.2386 51.8182C38.1932 50.8182 39.7273 49.4205 40.8409 47.625C41.9545 45.8295 42.5227 43.7273 42.5455 41.3182C42.5227 38.9545 41.9659 36.8977 40.875 35.1477C39.7841 33.375 38.2727 32.0114 36.3409 31.0568C34.4091 30.0795 32.1591 29.5909 29.5909 29.5909C26.9773 29.5909 24.6932 30.0795 22.7386 31.0568C20.7841 32.0114 19.2727 33.375 18.2045 35.1477C17.1364 36.8977 16.6136 38.9545 16.6364 41.3182C16.6136 43.7273 17.1477 45.8295 18.2386 47.625C19.3523 49.4205 20.8864 50.8182 22.8409 51.8182C24.7955 52.8182 27.0455 53.3182 29.5909 53.3182Z" fill="#FF0000"/>
</svg>
