<svg width="201" height="135" viewBox="0 0 201 135" fill="none" xmlns="http://www.w3.org/2000/svg">
<circle cx="173.098" cy="110.049" r="9.09836" transform="rotate(-180 173.098 110.049)" fill="black"/>
<circle cx="191.902" cy="110.049" r="9.09836" transform="rotate(-180 191.902 110.049)" fill="black"/>
<circle cx="182.197" cy="125.213" r="9.09836" transform="rotate(-180 182.197 125.213)" fill="black"/>
<path d="M182.5 108.229L173.307 92.3074L191.693 92.3074L182.5 108.229Z" fill="black"/>
<rect x="188.262" y="119.148" width="12.1311" height="12.1311" transform="rotate(-180 188.262 119.148)" fill="black"/>
<circle cx="27.9016" cy="24.2623" r="9.09836" fill="black"/>
<circle cx="9.09836" cy="24.2623" r="9.09836" fill="black"/>
<circle cx="18.8033" cy="9.09836" r="9.09836" fill="black"/>
<path d="M18.5 26.082L27.6927 42.0041H9.30736L18.5 26.082Z" fill="black"/>
<rect x="12.7377" y="15.1639" width="12.1311" height="12.1311" fill="black"/>
<circle cx="114" cy="72" r="15" fill="black"/>
<circle cx="83" cy="72" r="15" fill="black"/>
<circle cx="99" cy="47" r="15" fill="black"/>
<path d="M98.5 75L113.655 101.25H83.3446L98.5 75Z" fill="black"/>
<rect x="89" y="57" width="20" height="20" fill="black"/>
</svg>
