<svg width="61" height="70" viewBox="0 0 61 70" fill="none" xmlns="http://www.w3.org/2000/svg">
<path d="M61 40C61 48.2843 54.2843 55 46 55C37.7157 55 31 48.2843 31 40C31 31.7157 37.7157 25 46 25C54.2843 25 61 31.7157 61 40Z" fill="black"/>
<path d="M30 40C30 48.2843 23.2843 55 15 55C6.71573 55 0 48.2843 0 40C0 31.7157 6.71573 25 15 25C23.2843 25 30 31.7157 30 40Z" fill="black"/>
<path d="M46 15C46 23.2843 39.2843 30 31 30C22.7157 30 16 23.2843 16 15C16 6.71573 22.7157 0 31 0C39.2843 0 46 6.71573 46 15Z" fill="black"/>
<path d="M30.5 43L45.6554 69.25H15.3446L30.5 43Z" fill="black"/>
<path d="M21 25H41V45H21V25Z" fill="black"/>
</svg>
