<svg width="61" height="60" viewBox="0 0 61 60" fill="none" xmlns="http://www.w3.org/2000/svg">
<path d="M0 15C7.24234e-07 6.71573 6.71573 -7.24234e-07 15 0C23.2843 7.24234e-07 30 6.71573 30 15C30 23.2843 23.2843 30 15 30C6.71573 30 -7.24234e-07 23.2843 0 15Z" fill="#FF0000"/>
<path d="M31 15C31 6.71573 37.7157 1.98587e-06 46 2.71011e-06C54.2843 3.43434e-06 61 6.71573 61 15C61 23.2843 54.2843 30 46 30C37.7157 30 31 23.2843 31 15Z" fill="#FF0000"/>
<path d="M30.5 60L0.622123 20.25L60.3779 20.25L30.5 60Z" fill="#FF0000"/>
<path d="M40 30L20 30L20 10L40 10V30Z" fill="#FF0000"/>
</svg>
