<svg width="208" height="130" viewBox="0 0 208 130" fill="none" xmlns="http://www.w3.org/2000/svg">
<circle cx="88" cy="51" r="15" transform="rotate(-180 88 51)" fill="#FF0000"/>
<circle cx="119" cy="51" r="15" transform="rotate(-180 119 51)" fill="#FF0000"/>
<path d="M103.5 96L73.6221 56.25L133.378 56.25L103.5 96Z" fill="#FF0000"/>
<rect x="113" y="66" width="20" height="20" transform="rotate(-180 113 66)" fill="#FF0000"/>
<circle cx="12.1159" cy="9.56521" r="9.56522" transform="rotate(-180 12.1159 9.56521)" fill="#FF0000"/>
<circle cx="31.8841" cy="9.56521" r="9.56522" transform="rotate(-180 31.8841 9.56521)" fill="#FF0000"/>
<path d="M22 38.2609L2.94745 12.913L41.0526 12.913L22 38.2609Z" fill="#FF0000"/>
<rect x="28.058" y="19.1304" width="12.7536" height="12.7536" transform="rotate(-180 28.058 19.1304)" fill="#FF0000"/>
<circle cx="195.884" cy="119.696" r="9.56522" fill="#FF0000"/>
<circle cx="176.116" cy="119.696" r="9.56522" fill="#FF0000"/>
<path d="M186 91L205.053 116.348H166.947L186 91Z" fill="#FF0000"/>
<rect x="179.942" y="110.13" width="12.7536" height="12.7536" fill="#FF0000"/>
</svg>
