<svg width="221" height="350" viewBox="0 0 221 350" fill="none" xmlns="http://www.w3.org/2000/svg">
<path d="M186.193 326.818L175.693 326.818L175.693 277.318C175.693 272.841 176.58 269.011 178.352 265.83C180.102 262.648 182.568 260.216 185.75 258.534C188.932 256.875 192.659 256.045 196.932 256.045C200.864 256.045 204.398 256.761 207.534 258.193C210.648 259.625 213.114 261.705 214.932 264.432C216.727 267.182 217.625 270.523 217.625 274.455L207.159 274.455C207.159 272.523 206.716 270.852 205.83 269.443C204.92 268.034 203.682 266.932 202.114 266.136C200.523 265.364 198.705 264.977 196.659 264.977C194.432 264.977 192.545 265.443 191 266.375C189.432 267.33 188.239 268.727 187.42 270.568C186.602 272.409 186.193 274.659 186.193 277.318L186.193 326.818Z" fill="#FF0000"/>
<path d="M35.1818 23.1818H43.6364V73.0909C43.6364 77.5455 42.8182 81.3295 41.1818 84.4432C39.5455 87.5568 37.2386 89.9205 34.2614 91.5341C31.2841 93.1477 27.7727 93.9545 23.7273 93.9545C19.9091 93.9545 16.5114 93.2614 13.5341 91.875C10.5568 90.4659 8.21591 88.4659 6.51136 85.875C4.80682 83.2841 3.95455 80.2045 3.95455 76.6364H12.2727C12.2727 78.6136 12.7614 80.3409 13.7386 81.8182C14.7386 83.2727 16.1023 84.4091 17.8295 85.2273C19.5568 86.0455 21.5227 86.4545 23.7273 86.4545C26.1591 86.4545 28.2273 85.9432 29.9318 84.9205C31.6364 83.8977 32.9318 82.3977 33.8182 80.4205C34.7273 78.4205 35.1818 75.9773 35.1818 73.0909V23.1818Z" fill="#FF0000"/>
</svg>
