<svg width="207" height="142" viewBox="0 0 207 142" fill="none" xmlns="http://www.w3.org/2000/svg">
<circle cx="175.675" cy="114.349" r="9.21687" transform="rotate(-180 175.675 114.349)" fill="black"/>
<circle cx="194.723" cy="114.349" r="9.21687" transform="rotate(-180 194.723 114.349)" fill="black"/>
<path d="M185.199 142L166.84 117.575L203.557 117.575L185.199 142Z" fill="black"/>
<path d="M185.199 112.506L175.886 96.3765L194.511 96.3765L185.199 112.506Z" fill="black"/>
<rect x="191.036" y="123.566" width="12.2892" height="12.2892" transform="rotate(-180 191.036 123.566)" fill="black"/>
<circle cx="30.7229" cy="27.6506" r="9.21687" fill="black"/>
<circle cx="11.6747" cy="27.6506" r="9.21687" fill="black"/>
<path d="M21.1988 0L39.5575 24.4247H2.8401L21.1988 0Z" fill="black"/>
<path d="M21.1988 29.494L30.5112 45.6235H11.8864L21.1988 29.494Z" fill="black"/>
<rect x="15.3614" y="18.4337" width="12.2892" height="12.2892" fill="black"/>
<circle cx="117" cy="75" r="15" fill="black"/>
<circle cx="86" cy="75" r="15" fill="black"/>
<path d="M101.5 30L131.378 69.75H71.6221L101.5 30Z" fill="black"/>
<path d="M101.5 78L116.655 104.25H86.3446L101.5 78Z" fill="black"/>
<rect x="92" y="60" width="20" height="20" fill="black"/>
</svg>
