<svg width="61" height="75" viewBox="0 0 61 75" fill="none" xmlns="http://www.w3.org/2000/svg">
<path d="M61 45C61 53.2843 54.2843 60 46 60C37.7157 60 31 53.2843 31 45C31 36.7157 37.7157 30 46 30C54.2843 30 61 36.7157 61 45Z" fill="black"/>
<path d="M30 45C30 53.2843 23.2843 60 15 60C6.71573 60 0 53.2843 0 45C0 36.7157 6.71573 30 15 30C23.2843 30 30 36.7157 30 45Z" fill="black"/>
<path d="M30.5 0L60.3779 39.75H0.622124L30.5 0Z" fill="black"/>
<path d="M30.5 48L45.6554 74.25H15.3446L30.5 48Z" fill="black"/>
<path d="M21 30H41V50H21V30Z" fill="black"/>
</svg>
